<svg width="20" height="16" viewBox="0 0 20 16" fill="none" xmlns="http://www.w3.org/2000/svg">
<path d="M9.71924 8.64502L16.3599 15.2856C16.8188 15.7446 17.561 15.7446 18.0151 15.2856L19.1187 14.1821C19.5776 13.7231 19.5776 12.981 19.1187 12.5269L14.4116 7.81982L19.1187 3.11279C19.5776 2.65381 19.5776 1.91162 19.1187 1.45752L18.02 0.344238C17.561 -0.114746 16.8188 -0.114746 16.3647 0.344238L9.72412 6.98486C9.26025 7.44385 9.26025 8.18604 9.71924 8.64502ZM0.344238 6.98486L6.98486 0.344238C7.44385 -0.114746 8.18604 -0.114746 8.64014 0.344238L9.74365 1.44775C10.2026 1.90674 10.2026 2.64893 9.74365 3.10303L5.03662 7.81006L9.74365 12.5171C10.2026 12.9761 10.2026 13.7183 9.74365 14.1724L8.64014 15.2759C8.18115 15.7349 7.43897 15.7349 6.98486 15.2759L0.344238 8.63525C-0.114746 8.18604 -0.114746 7.44385 0.344238 6.98486Z" fill="#12A454"/>
</svg>
