<svg width="25" height="20" viewBox="0 0 25 20" fill="none" xmlns="http://www.w3.org/2000/svg">
<path d="M12.1094 0.0859375C5.41992 0.0859375 0 4.4941 0 9.9348C0 15.3755 5.41992 19.7837 12.1094 19.7837C18.7988 19.7837 24.2188 15.3755 24.2188 9.9348C24.2188 4.4941 18.7988 0.0859375 12.1094 0.0859375ZM14.8975 13.9895L10.5908 11.4439C10.4395 11.3526 10.3516 11.2096 10.3516 11.0587V4.37496C10.3516 4.11285 10.6152 3.8984 10.9375 3.8984H13.2812C13.6035 3.8984 13.8672 4.11285 13.8672 4.37496V9.84346L16.9678 11.6782C17.2314 11.8331 17.2852 12.1309 17.0947 12.3454L15.7178 13.8863C15.5273 14.0967 15.1611 14.1444 14.8975 13.9895Z" fill="#12A454"/>
</svg>
