<svg width="37" height="43" viewBox="0 0 37 43" fill="none" xmlns="http://www.w3.org/2000/svg">
<path d="M35 17.9545C35 30.3636 18.5 41 18.5 41C18.5 41 2 30.3636 2 17.9545C2 13.7231 3.73839 9.66504 6.83274 6.67298C9.92709 3.68092 14.1239 2 18.5 2C22.8761 2 27.0729 3.68092 30.1673 6.67298C33.2616 9.66504 35 13.7231 35 17.9545Z" stroke="#12A454" stroke-width="3" stroke-linecap="round" stroke-linejoin="round"/>
<path d="M18.5 23.2727C21.5376 23.2727 24 20.8917 24 17.9545C24 15.0174 21.5376 12.6364 18.5 12.6364C15.4624 12.6364 13 15.0174 13 17.9545C13 20.8917 15.4624 23.2727 18.5 23.2727Z" stroke="#12A454" stroke-width="3" stroke-linecap="round" stroke-linejoin="round"/>
</svg>
